PathFileType	4	(X/Y/Z)	C:\Users\Basilio\Documents\Thesis Gigler\squatting_fais\c3dfiles\039\SJ_pre3\markers_experimental.trc
DataRate	CameraRate	NumFrames	NumMarkers	Units	OrigDataRate	OrigDataStartFrame	OrigNumFrames
200.000000	200.000000	4	63	mm	200.000000	1540	1760
Frame#	Time	FHD			LBHD			RBHD			C7			T10			CLAV			LSHO			LUUPA			LMUPA			LDUPA			LLEP			LMEP			LRAD			LUL			LRFIN			RSHO			RUPA1			RMUPA			RDUPA			RLEP			RMEP			RRAD			RUL			RUFIN			LASI			RASI			USACR			LSACR			RSACR			LTHI1			LTHI2			LTHI3			LTHI4			LLFC			LMFC			LTIB1			LTIB2			LTIB3			LTIB4			LLMAL			LMMAL			LHEE			LMT1			LMT2			LMT5			RTHI			RTHI2			RTHI3			RTHI4			RLFC			RMFC			RTIB1			RTIB2			RTIB3			RTIB4			RLMAL			RMMAL			RHEE			RMT1			RMT2			RMT5			*61			*62			
		X1	Y1	Z1	X2	Y2	Z2	X3	Y3	Z3	X4	Y4	Z4	X5	Y5	Z5	X6	Y6	Z6	X7	Y7	Z7	X8	Y8	Z8	X9	Y9	Z9	X10	Y10	Z10	X11	Y11	Z11	X12	Y12	Z12	X13	Y13	Z13	X14	Y14	Z14	X15	Y15	Z15	X16	Y16	Z16	X17	Y17	Z17	X18	Y18	Z18	X19	Y19	Z19	X20	Y20	Z20	X21	Y21	Z21	X22	Y22	Z22	X23	Y23	Z23	X24	Y24	Z24	X25	Y25	Z25	X26	Y26	Z26	X27	Y27	Z27	X28	Y28	Z28	X29	Y29	Z29	X30	Y30	Z30	X31	Y31	Z31	X32	Y32	Z32	X33	Y33	Z33	X34	Y34	Z34	X35	Y35	Z35	X36	Y36	Z36	X37	Y37	Z37	X38	Y38	Z38	X39	Y39	Z39	X40	Y40	Z40	X41	Y41	Z41	X42	Y42	Z42	X43	Y43	Z43	X44	Y44	Z44	X45	Y45	Z45	X46	Y46	Z46	X47	Y47	Z47	X48	Y48	Z48	X49	Y49	Z49	X50	Y50	Z50	X51	Y51	Z51	X52	Y52	Z52	X53	Y53	Z53	X54	Y54	Z54	X55	Y55	Z55	X56	Y56	Z56	X57	Y57	Z57	X58	Y58	Z58	X59	Y59	Z59	X60	Y60	Z60	X61	Y61	Z61	X62	Y62	Z62	X63	Y63	Z63	

1541	7.7	-124.9565811157227	1680.473510742188	-800.1777343750002	-271.9373168945313	1732.525024414063	-927.6730957031252	-250.2534179687501	1727.448974609375	-787.7677001953127	-387.4868469238282	1580.551635742188	-866.6043701171877	-430.6345520019532	1258.276733398438	-871.7403564453127	-254.533432006836	1490.92626953125	-864.9957275390627	-304.0430908203126	1544.50634765625	-1055.267822265625	-400.5445556640626	1406.87548828125	-1215.171264648438	-365.6211242675782	1369.694580078125	-1216.495361328125	-406.4306945800782	1350.573974609375	-1257.045166015625	-407.7610473632814	1284.378173828125	-1284.3359375	-484.3019104003907	1273.734985351563	-1240.444702148438	-407.3491210937501	1047.47900390625	-1108.937744140625	-362.7097167968751	1026.050903320313	-1165.9755859375	-351.3618469238282	1058.454223632813	-1068.150146484375	-280.3633117675782	1546.586059570313	-673.6853027343751	-412.0713500976564	1430.787353515625	-524.3413085937501	-384.3594055175782	1390.79248046875	-511.6966247558595	-435.3912048339845	1379.402954101563	-482.1690368652345	-437.2120971679689	1314.336181640625	-454.3993225097657	-510.9256286621095	1307.657958984375	-504.4795532226564	-395.0623168945314	1103.986206054688	-660.8351440429689	-387.5961303710939	1056.284301757813	-601.1600952148439	-334.9989013671876	1078.606079101563	-697.9826660156251	-267.4801330566407	1062.608642578125	-988.2381591796877	-273.4189758300782	1050.172729492188	-763.2395019531251	-446.453826904297	1127.031372070313	-874.5557250976565	-452.5580139160157	1097.288818359375	-903.9461669921877	-457.1890258789064	1095.730346679688	-845.5305786132815	-323.5655212402344	789.789001464844	-1071.58447265625	-284.0202331542969	714.7072753906251	-1075.068359375	-236.6396789550782	721.1270141601564	-1066.032470703125	-306.5689392089844	659.4191284179689	-1062.813598632813	-295.1659240722657	537.6647949218751	-1064.180053710938	-260.9978942871094	510.9202575683595	-950.8831176757815	-237.5503082275391	389.8922119140626	-1047.9423828125	-306.1509094238282	351.2008056640626	-1086.849487304688	-265.7605590820313	345.3246765136719	-1071.852416992188	-264.7048034667969	264.6951904296876	-1035.094116210938	-333.5914306640626	100.5449600219727	-1070.515747070313	-304.9532470703126	95.47175598144533	-987.065124511719	-394.973846435547	40.45685195922852	-1024.286865234375	-162.3829345703125	64.36345672607423	-1045.7802734375	-176.7384338378907	65.71420288085939	-1087.12939453125	-225.4692993164063	37.41503143310548	-1129.5166015625	-308.8578491210938	786.9366455078127	-685.2752075195314	-261.6011352539063	739.6353759765626	-678.8535766601564	-230.7345428466797	746.3110961914064	-685.0805053710939	-277.6355895996094	654.7052001953126	-685.1122436523439	-290.4460449218751	515.3738403320314	-701.5742187500001	-246.7531127929688	500.3436279296876	-811.361999511719	-253.9327392578126	305.8228149414063	-698.5856933593751	-339.4467468261719	240.8987274169922	-692.4158325195314	-293.1265563964844	232.9079132080079	-689.2463378906251	-272.6278076171876	181.5818328857422	-712.7432250976564	-342.1560668945313	92.28543090820314	-689.7552490234376	-303.0816955566407	100.3923797607422	-771.7452392578127	-401.6820373535157	38.53458786010743	-745.1200561523439	-169.6277008056641	58.60244369506837	-709.4938354492189	-182.3952331542969	66.37882232666017	-665.6839599609376	-241.5252532958985	36.25027465820313	-624.5994262695314	nan	nan	nan	nan	nan	nan	
1542	7.705	-123.7411422729492	1679.856811523438	-800.288757324219	-271.1908264160157	1732.259155273438	-927.6799316406252	-248.9439849853516	1727.278442382813	-787.8423461914065	-386.7070922851564	1580.517822265625	-866.6264648437502	-430.4706420898439	1258.322021484375	-871.7248535156252	-253.8186340332032	1490.546752929688	-865.096862792969	-303.4164123535157	1544.142578125	-1055.269165039063	-400.0675048828126	1406.80419921875	-1215.166870117188	-365.3191833496094	1369.693603515625	-1216.410400390625	-406.086151123047	1350.521606445313	-1256.980590820313	-407.4721679687501	1284.253662109375	-1284.326416015625	-483.9997558593751	1273.679077148438	-1240.4384765625	-407.2127380371095	1047.41162109375	-1108.91455078125	-362.6065368652344	1026.018310546875	-1165.974487304688	-351.2444152832032	1058.395263671875	-1068.106079101563	-279.6753845214844	1546.428344726563	-673.6753540039064	-412.2387084960939	1430.443481445313	-524.6782226562501	-383.9272155761719	1390.722534179688	-511.6517028808595	-435.0127868652345	1379.514770507813	-482.2123413085939	-437.0628967285157	1314.384643554688	-454.4398498535157	-510.6645812988282	1307.902465820313	-504.5134277343751	-394.9948120117189	1104.057739257813	-660.8066406250001	-387.4980468750001	1056.409790039063	-601.1396484375001	-334.9916381835938	1078.608642578125	-697.9582519531251	-267.3491210937501	1062.539916992188	-988.1950683593752	-273.4370727539063	1050.152465820313	-763.1802368164064	-446.4234008789064	1127.089477539063	-874.5865478515627	-452.5089111328126	1097.315673828125	-903.9783325195315	-457.1889953613282	1095.760864257813	-845.528015136719	-323.5584106445313	789.756042480469	-1071.533447265625	-284.0025939941407	714.6617431640626	-1075.044677734375	-236.5614776611329	721.0257568359376	-1066.038330078125	-306.5690612792969	659.3829956054689	-1062.807739257813	-295.1461486816407	537.6544189453126	-1064.145751953125	-260.8963928222657	510.9705810546876	-950.9444580078127	-237.5473327636719	389.9028930664064	-1047.957397460938	-306.1030273437501	351.1196594238282	-1086.874267578125	-265.8688659667969	345.2043151855469	-1071.885620117188	-264.5899658203126	264.7031860351563	-1035.100830078125	-333.5359497070313	100.5243301391602	-1070.525268554688	-304.9200439453126	95.43946075439455	-987.0888671875002	-395.004119873047	40.53233337402344	-1024.25244140625	-162.3325653076172	64.16677856445314	-1045.7939453125	-176.6513061523438	65.4584197998047	-1087.191162109375	-225.4233093261719	37.22131347656251	-1129.56396484375	-308.8580627441407	786.9121093750002	-685.1878662109376	-261.5490112304688	739.6122436523439	-678.7662353515626	-230.6958618164063	746.2678222656251	-684.9901733398439	-277.4258117675782	654.9404296875001	-684.9425659179689	-290.4583435058594	515.3741455078126	-701.5068969726564	-246.7989501953126	500.3392639160157	-811.3055419921877	-253.9072723388672	305.7206420898438	-698.5365600585939	-339.3966674804688	240.866439819336	-692.3556518554689	-293.0845642089844	232.9160614013672	-689.1723022460939	-272.5457153320313	181.5578765869141	-712.6978149414064	-342.1022338867188	92.22887420654298	-689.6895141601564	-302.9367370605469	100.3779602050782	-771.6759033203127	-401.5276489257814	38.55653381347657	-745.1393432617189	-169.5443267822266	58.30262374877931	-709.3681640625001	-182.2454376220703	66.20775604248048	-665.5867309570314	-241.4633331298829	35.96007919311524	-624.5087890625001	nan	nan	nan	nan	nan	nan	
1543	7.71	-122.7777099609375	1679.352172851563	-800.2963867187502	-269.9467773437501	1731.991577148438	-927.8725585937502	-247.9398498535157	1727.016967773438	-787.9702148437502	-386.038055419922	1580.7001953125	-866.7008056640627	-430.1425781250001	1258.4765625	-871.707946777344	-253.1387176513672	1490.2685546875	-865.1612548828127	-302.7841796875001	1543.788330078125	-1055.301879882813	-399.6297912597657	1406.599731445313	-1215.183227539063	-365.5416870117188	1369.629028320313	-1215.81787109375	-406.0720214843751	1350.375854492188	-1256.840698242188	-407.144989013672	1284.166870117188	-1284.342651367188	-483.6833801269532	1273.696533203125	-1240.425170898438	-406.992889404297	1047.382080078125	-1108.839599609375	-362.4636230468751	1025.981811523438	-1165.951293945313	-351.0884094238282	1058.306396484375	-1068.053100585938	-278.7624511718751	1546.304321289063	-673.7139282226564	-411.8154907226564	1430.574829101563	-524.6857910156251	-383.4850158691407	1390.840576171875	-511.7054138183595	-434.6604614257814	1379.722534179688	-482.2862243652345	-436.6917419433595	1314.583374023438	-454.4059448242189	-510.426727294922	1308.10009765625	-504.4653320312501	-394.8965454101564	1104.095947265625	-660.7616577148439	-387.5079040527345	1056.463134765625	-601.0730590820314	-334.8813171386719	1078.60791015625	-697.9311523437501	-267.2113952636719	1062.493530273438	-988.0629882812502	-273.4447326660157	1050.092407226563	-763.1007080078126	-446.3695678710939	1127.12890625	-874.533630371094	-452.4302673339845	1097.303466796875	-903.9343261718752	-457.1695251464845	1095.829833984375	-845.582458496094	-323.4918212890626	789.747741699219	-1071.525512695313	-283.9624328613282	714.6444702148439	-1075.0419921875	-237.1421966552735	721.4205932617189	-1066.160888671875	-306.4998779296876	659.3164062500001	-1062.7548828125	-295.1612548828126	537.6489257812501	-1064.124633789063	-260.9757690429688	510.9121093750001	-950.9317626953127	-237.573471069336	389.9002685546876	-1047.967041015625	-306.0531616210938	351.1501464843751	-1086.854248046875	-265.6541442871094	345.2911376953126	-1071.835083007813	-264.6103210449219	264.6806335449219	-1035.1318359375	-333.4148254394532	100.8176651000977	-1070.460571289063	-304.8682556152344	95.42280578613283	-987.1121826171877	-394.9240112304689	40.55487823486329	-1024.239868164063	-162.2181854248047	63.52369308471681	-1045.9609375	-176.5697784423828	65.13871002197267	-1087.149658203125	-225.3929748535157	36.92946243286134	-1129.629150390625	-308.8708190917969	786.867614746094	-685.1325683593751	-261.5107727050782	739.5996093750001	-678.6973266601564	-230.6925506591797	746.2322387695314	-684.9877319335939	-277.4467163085938	654.9176025390626	-684.9556884765626	-290.4543762207032	515.3682250976564	-701.4556884765626	-246.8151245117188	500.3376770019532	-811.2537841796877	-253.8392333984376	305.7612304687501	-698.4346923828126	-339.3778076171876	240.8554077148438	-692.3227539062501	-293.0310363769532	232.8257141113282	-689.0795898437501	-272.4673767089844	181.5529937744141	-712.6267700195314	-342.0412597656251	92.24742126464845	-689.6763305664064	-302.8326416015626	100.3719635009766	-771.620544433594	-401.4630432128907	38.64424896240235	-745.1239624023439	-169.4986419677735	58.04117965698244	-709.4697265625001	-182.6148834228516	65.45549774169923	-665.7940673828126	-241.4352416992188	35.78729629516602	-624.3386230468751	nan	nan	nan	nan	nan	nan	
1544	7.715	-121.5173721313477	1678.780151367188	-800.5666503906252	-269.2601928710938	1731.708984375	-927.8127441406252	-246.6026000976563	1726.640991210938	-788.1166992187502	-385.0623474121095	1580.666137695313	-866.7091064453127	-429.8516235351564	1258.644653320313	-871.6535644531252	-252.4938964843751	1490.132934570313	-865.0917968750002	-302.0755615234376	1543.471923828125	-1055.297973632813	-399.1426391601564	1406.494995117188	-1215.204467773438	-365.0003051757813	1369.543090820313	-1215.940185546875	-405.6736755371095	1350.27685546875	-1256.850830078125	-406.7251281738282	1284.082763671875	-1284.36572265625	-483.324920654297	1273.641235351563	-1240.433349609375	-406.8527832031251	1047.3564453125	-1108.860595703125	-362.2572937011719	1025.879638671875	-1165.9296875	-350.9408264160157	1058.23779296875	-1067.981689453125	-278.1405639648438	1546.16796875	-673.7487182617189	-411.2989196777345	1430.678588867188	-524.7088623046876	-383.2074584960938	1390.879760742188	-511.791473388672	-434.2418212890626	1379.915771484375	-482.2824707031251	-436.4364624023439	1314.717529296875	-454.3937988281251	-510.0904235839845	1308.30322265625	-504.4898376464845	-394.7955932617189	1104.1982421875	-660.7351684570314	-387.4061279296876	1056.532348632813	-601.0335693359376	-334.8463745117188	1078.627075195313	-697.9126586914064	-267.1208801269532	1062.34228515625	-987.9204101562502	-273.3938598632813	1050.05419921875	-762.9896850585939	-446.2181091308595	1127.203735351563	-874.5576171875002	-452.3182067871095	1097.32568359375	-903.951354980469	-457.0679626464845	1095.826538085938	-845.578796386719	-323.4129333496094	789.6799926757815	-1071.484741210938	-283.8917541503907	714.5504760742189	-1075.0205078125	-236.4486236572266	720.8854370117189	-1066.007446289063	-306.4916381835938	659.2916870117189	-1062.713989257813	-295.1753845214844	537.6536254882814	-1064.099487304688	-260.8942871093751	510.8819885253907	-950.8461914062502	-237.5454101562501	389.8297119140626	-1047.97265625	-306.1383666992188	351.1064147949219	-1086.917358398438	-265.7272338867188	345.2481994628907	-1071.906372070313	-264.6301269531251	264.6843566894532	-1035.192749023438	-333.3835449218751	100.4663848876953	-1070.584838867188	-304.7391052246094	95.41169738769533	-987.1702270507815	-394.8137207031251	40.51751708984376	-1024.288208007813	-162.0673522949219	63.14130020141603	-1046.04150390625	-176.4111022949219	64.8012161254883	-1087.200317382813	-225.4086151123047	36.97316360473634	-1129.609252929688	-308.8015747070313	786.8252563476565	-685.0642700195314	-261.4373168945313	739.5261230468751	-678.6586303710939	-230.6287384033204	746.2024536132814	-684.9226074218751	-277.4237060546876	654.9220581054689	-684.8656005859376	-290.4881896972657	515.4252929687501	-701.3717041015626	-246.837142944336	500.3035583496095	-811.2380981445315	-253.8044586181641	305.7428283691407	-698.4109497070314	-339.1150512695313	241.0196838378907	-692.1336669921876	-292.9747619628907	232.7606964111329	-688.9722290039064	-272.3992614746094	181.5206451416016	-712.6057739257814	-341.9354858398438	92.20104980468751	-689.6117553710939	-302.7592468261719	100.3557586669922	-771.5323486328127	-401.3922729492189	38.71178436279298	-745.1370239257814	-169.3127136230469	57.39426040649415	-709.2848510742189	-182.6137237548828	65.06897735595705	-665.7259521484376	-241.3754577636719	35.57914352416993	-624.1796264648439	nan	nan	nan	nan	nan	nan	
